<?xml version="1.0" encoding="utf-8"?>
<!-- Generator: Adobe Illustrator 24.1.2, SVG Export Plug-In . SVG Version: 6.00 Build 0)  -->
<svg version="1.1" id="magnifying-glass" xmlns="http://www.w3.org/2000/svg" xmlns:xlink="http://www.w3.org/1999/xlink" x="0px"
	 y="0px" viewBox="0 0 48 48" style="enable-background:new 0 0 48 48;" xml:space="preserve">
<style type="text/css">
	.st0{fill:#820009;}
	.st1{fill-rule:evenodd;clip-rule:evenodd;fill:#820009;}
</style>
<path class="st0" d="M18.7,12.8c-1.7,0.1-3.3,0.7-4.2,1.5c-0.4,0.4-1,0.4-1.4,0c-0.4-0.4-0.4-1,0-1.4c1.3-1.3,3.4-2,5.5-2.1
	c2.1-0.1,4.4,0.5,6,2.1c0.4,0.4,0.4,1,0,1.4c-0.4,0.4-1,0.4-1.4,0C22.1,13.2,20.5,12.7,18.7,12.8z"/>
<path class="st1" d="M28.9,27.4c1.9-2.3,3.1-5.2,3.1-8.4c0-7.2-5.8-13-13-13S6,11.8,6,19s5.8,13,13,13c3.2,0,6.1-1.2,8.4-3.1
	L27,31.1l7.5,7.5l4.1-4.1L31.1,27L28.9,27.4z M19,29c5.5,0,10-4.5,10-10S24.5,9,19,9S9,13.5,9,19S13.5,29,19,29z"/>
<path class="st0" d="M35.9,40.1l4.1-4.1l1.4,1.4c0.8,0.8,0.8,2,0,2.8L40,41.4c-0.8,0.8-2,0.8-2.8,0L35.9,40.1z"/>
</svg>
