<svg xmlns="http://www.w3.org/2000/svg" viewBox="0 0 1000 1000"><defs><style>.cls-1{fill:#820009;}</style></defs><g id="Layer_2" data-name="Layer 2"><rect width="1000" height="1000"/></g><g id="Layer_1" data-name="Layer 1"><g id="X_Eye" data-name="X Eye"><path class="cls-1" d="M133.81,527.66c1.18,7.6,10.32,7.48,16.47,7.69,0,.92,0,1.83,0,2.75-.88.88-1.9,1.89-2.69,2.7,6.29-1.11,15.48-4.59,20.93-5.18s.37-.59,7,0,23,4.13,31.15,5.14c-2.75-10.83-51.18-19.82-58.11-21.06s-4.3.36-9.41-.34c-1.48,1.93-3.59,3.69-5.34,5.54C133.87,525.87,133.65,526.65,133.81,527.66Z"/><path class="cls-1" d="M14.77,202.64h-5L4.86,207l17.06,14.31q7.16,0,7.15,7.15h14.3Q21.38,203.75,14.77,202.64Z"/><rect class="cls-1" x="14.11" y="328.52" width="10.11" height="10.11" transform="translate(-230.25 111.24) rotate(-45)"/><polygon class="cls-1" points="880.7 452.41 876.3 457.36 880.7 461.76 883.46 461.76 887.86 457.36 883.46 452.41 880.7 452.41"/><path class="cls-1" d="M816.34,830.92v5q8.25,0,24.2,16.5l4.4-5v-7.15Q844.94,832.58,816.34,830.92Z"/><polygon class="cls-1" points="840.54 385.84 837.79 388.05 842.74 393 847.7 393 847.7 390.25 842.74 385.84 840.54 385.84"/><polygon class="cls-1" points="100.59 161.93 102.79 159.73 95.64 152.58 90.69 156.98 100.59 164.13 100.59 161.93"/><polygon class="cls-1" points="338.25 181.19 338.25 178.44 335.5 176.24 331.1 181.19 331.1 183.39 335.5 183.39 338.25 181.19"/><polygon class="cls-1" points="833.39 102.52 828.44 97.56 823.49 102.52 823.49 104.72 826.24 107.47 833.39 102.52"/><polygon class="cls-1" points="176.51 109.67 181.46 104.72 174.31 97.56 169.36 97.56 169.36 104.72 174.31 109.67 176.51 109.67"/><path class="cls-1" d="M14.77,835.87"/><path class="cls-1" d="M114.89,138.28l2.2-2.2q-8.25-14.31-21.45-14.31l-5,4.4Q90.69,132.77,114.89,138.28Z"/><path class="cls-1" d="M873.55,418.85q-7.71-14.3-18.7-14.3H852.1q0,4.95,7.15,4.95l-2.2,9.35a122.09,122.09,0,0,0,33.56,21.46h2.2l7.15-7.15V431Q900,422.7,873.55,418.85Z"/><path class="cls-1" d="M102.79,207l-2.2,2.76v4.4l7.15-7.16q0-4.39-40.71-40.16h-2.2l-7.15,9.36,45.11,28.6Z"/><polygon class="cls-1" points="912.06 169.09 912.06 171.28 914.26 174.03 919.22 169.09 919.22 166.88 914.26 166.88 912.06 169.09"/><polygon class="cls-1" points="307.45 533.28 297.54 526.13 281.04 531.08 290.39 540.44 300.3 540.44 307.45 533.28"/><polygon class="cls-1" points="359.71 526.13 354.76 521.18 352.56 521.18 352.56 526.13 354.76 528.33 356.96 528.33 359.71 526.13"/><polygon class="cls-1" points="162.21 219.15 155.06 212 150.1 216.95 155.06 221.35 160.01 221.35 162.21 219.15"/><path class="cls-1" d="M990.19,102.52,950,119v5q45.11-12.09,45.12-16.5Z"/><polygon class="cls-1" points="257.38 102.52 254.63 104.72 259.58 109.67 261.78 109.67 264.54 107.47 259.58 102.52 257.38 102.52"/><polygon class="cls-1" points="145.7 216.95 142.95 199.89 138.55 199.89 133.6 214.2 138.55 219.15 142.95 219.15 145.7 216.95"/><polygon class="cls-1" points="816.34 276.36 816.34 278.56 823.49 278.56 826.24 276.36 821.29 271.41 816.34 276.36"/><path class="cls-1" d="M802.58,290.67h-5q-17.61,16-42.91,30.81,17.6,0,52.27-26.41Z"/><path class="cls-1" d="M102.79,309.37l-5-4.4q-42.91,16.5-42.91,21.46l5,7.15Q87.93,309.37,102.79,309.37Z"/><path class="cls-1" d="M799.83,828.72q0-19.26-38-19.26v4.95q19.8,0,26.41,18.71l16.5-2.2v-5h-2.2Z"/><rect class="cls-1" x="749.77" y="811.66" width="7.15" height="4.95"/><path class="cls-1" d="M166.1,605.6c-11.8.5-21.7,4.93-31.94,10.41v2.76c.92.91,1.83,1.83,2.75,2.75l42.91-11c0-1.65,0-3.29,0-5C175.33,605.67,170.53,605.41,166.1,605.6Z"/><path class="cls-1" d="M163,492v-5.5h8.25V492Z"/><path class="cls-1" d="M120.06,413.9l5.5-5.5h2.2l32.46,19.26H163l2.75-2.76c6.6.66,10,5,13.21,10.46h-5C157.73,430.85,132,427.35,120.06,413.9Z"/><path class="cls-1" d="M187.18,478.82v4.95l-8.25,2.75h-5c.87-4.5,6.76-6.23,10.45-7.7Z"/><path class="cls-1" d="M45.3,389.7l-2.75,2.75c-5.58-1.09-7-8.61-8.25-13.21l2.75-2.75c19,1.3,31.28,9.42,42.91,24.21H71.71C63.85,394,55.44,391.09,45.3,389.7Z"/><path class="cls-1" d="M257,481.05c-.47,5.07-6.21,5.35-10.37,5.47,0,.92,0,1.83,0,2.75l2.76,2.75h-5.51l-13.75-8.25L216.89,492h-5.51l-32.45-24.2v-5.5c7.64-1.37,12.5-10.11,16.5-16-5.48-2-15.07-4.31-16.5-11,6,.67,17.6.75,19.25,8.25l7.7-2.75c-2.69-5.52-6.43-16.79-13.2-18.71V419.4l2.75-2.75c6.86,7.46,17,16.41,18.71,27,7.26,1.32,26.59,2.25,29.7,11l-5.5,4.95c4.81,7,10.17,10.44,18.72,11C256.86,474.12,257.31,477.44,257,481.05Z"/></g><polygon class="cls-1" points="144.46 648.65 146.69 645.92 140.81 642.12 135.97 643.15 136.55 645.84 142.31 649.11 144.46 648.65"/><polygon class="cls-1" points="210.82 924.19 216.7 928 220.5 922.12 220.04 919.96 216.77 917.85 210.82 924.19"/><path class="cls-1" d="M105.27,623.29q10.53,12.36,21.29,10.07l2.69-.58q-1-4.85-8-3.34l.19-9.61q-16.09-9.5-37.31-14l-2.15.46-5.5,8.5.46,2.15Q78.65,625.06,105.27,623.29Z"/><polygon class="cls-1" points="119.94 875.58 119.48 873.43 116.76 871.2 112.95 877.08 113.41 879.23 118.25 878.2 119.94 875.58"/><path class="cls-1" d="M109.13,887.51l17.62-39.69-3.42-3.58q-24.26,39.91-21.2,43.11"/><path class="cls-1" d="M450.93,540.44c-12.13,4.67-39.54,17-45.55,42.54q-9.9,33.93-30.2,35.6.72,8.76-26.17,30.85l0,0A7.6,7.6,0,0,1,345.19,663c-6.77.88-12.28,2.84-11.89,7.53l3.26,3c5.2,5.1-6.64,5.71-6.19,11.19q1.08,13.17-26.17,30.85L279,757.85q1.17,14.25-67.19,55.74l-38.59,27.46q-30.33.27-35.68-4.25l-6.36,9.91-2.92-2-2,2.37-4.93.41-.18-2.2q-.41-4.94,9.46-5.74l2-2.38-.4-4.93-26.72-2.78-4,5.3-2.74.22-7.53-4.35L86.8,831q-5.43,1-26.35,28.66-18.09,1.49-23.54,9.11l-2.42-2.56-.18-2.2q-.41-4.93,11.66-5.92-.54-6.58,29.18-21.16l65.25-79.32,13.52-37q36.9-8,71.32-32.35-2.34-28.51,2.59-28.92l-3-9.14-23.54,9.11-2.2.18q2.76-6.85,34.07-22.12l1.61-7.3-8.89-20.8-2.19.18-4.53,5.34,3.51,9.09Q193,638,175.39,659.26l-3-2.52-.18-2.19q14.43-19.39,40-37l-1.17-14.25-4.74-4-2.74.23q-19.74,1.62-27.93,9.46l-4.39.36q-9.87.81-27.49-12.09l-24.56-10.13-2,2.92-2.74.23-5-6.77,4-5.3q23-1.89,34.61,11.51,16.46-1.35,17.22,8l19-3.77a79.62,79.62,0,0,1,38.6,6.22q-.76-9.33,11.29-10.32l3,9.15,12.06-1-14.4-27.53Q240.38,570,243,582l2-2.37,2.74-.23a27.76,27.76,0,0,1,8.66,18.06l9.32-.76-.76-9.32,2.19-.18,7.54,4.35,1.6-7.31,15,8.15,2.75-.23q10.14-4.14,46-51.79l28.47-24a26.55,26.55,0,0,1,36.52,2.15h0l-16.73,2.75q0-9.34-55-47.31Q304.7,453,304.7,440.31q-3.3,0-9.36-18.71-26.4-3.3-52.26-55-27-21.46-38.51-21.46h-2.2v2.75l9.35,14.31v7.15q-7.16,0-7.15,11.55l5,4.95V393l-5,4.4h-4.4q-7.71,0-9.35-23.66,6-.54,9.35-11.55-5.5,0-9.35-24.21l-7.16,4.95q-4.95,0-4.95-7.15h-2.2l-2.2,2.2h-2.75q0,4.41,14.3,12.1v2.2l-4.4,5q-24.19-12.11-24.2-26.41l2.75-2.2q-28.6-2.19-28.61-19.26h-2.75l-6.6,4.95h-5l-5-4.95v-2.2q11,0,28.61-21.45-7.14-7.16-90.22-45.12v-2.2q0-5.49,11.55-7.15,60.53,42.38,71.52,42.36l2.2-2.2v-2.2h-4.4v-4.95l2.2-2.2v-2.2q-33-9.9-33-14.3l2.2-2.76L143,254.91V250l-35.21-30.81h4.4l50.07,33.56,4.95-5h7.15v5q-8.79,0-12.1,13.75h-5v5l5,4.95h2.2l17.05-9.9-2.75-2.2v-2.2q17.06-9.34,18.71-16.5l-6.6-7.16v-9.9l4.4-7.15V217q-2.21-7.14-13.76-7.15l-9.9,2.2-7.15-21.46H147.9q0-7.14-7.15-7.15l-2.2-2.2v-4.95l4.4-7.16q-18.69-20.34-18.7-26.4l2.2-2.2h2.2l14.3,5,2.75-14.31h2.2l4.95,5-2.75,11.55,12.11,21.45h12.1q5.5,0,7.15-12.1a23.29,23.29,0,0,0-17.05-7.15L160,138.28l4.4-5h9.9q7.16,10.47,30.26,26.41l-2.2,2.2v2.2h9.35l-2.2-16.5,7.15-4.95-2.2-9.36q0-20.89,18.71-33,0-19.26,19.25-19.26h4.95l4.4,5q0,3.3-9.35,7.15l-7.15-2.75Q234.83,109.67,226,109.67l-4.4,12.1q4.95,13.76,23.66,30.81l26.41-16.5,4.4,4.4L247.48,157v5q26.41,8.81,26.41,30.81,6.6,0,12.1,24.21,31.9,13.2,40.16,25.85v21.46q55,17.61,55,55,0,8.25,23.65,16.5L407,338v4.95q-3.86,9.36-16.5,9.35V355l35.76,23.65,9.35-7.15h7.15q11.57,18.15,47.87,28.61,9.35,18.15,18.7,23.65h2.75q18.71-5.49,30.81-42.91,12.65-33,33-33,0-8.79,28.61-28.6h28.61V302.22Q626,294,626,285.72q0-13.22,28.61-28.61L683.2,217q0-14.31,71.52-50.07l40.71-24.2q30.26,2.2,35.21,7.15l7.15-9.35,2.75,2.2,2.2-2.2h5v2.2q0,4.95-9.9,4.95l-2.2,2.2v4.95L862,159.73l4.4-4.95h2.75l7.15,4.95h4.4q5.5-.54,28.61-26.41,18.16,0,24.21-7.15l2.2,2.75v2.2q0,4.95-12.1,5,0,6.6-30.81,18.7L821.29,228.5l-16.51,35.76q-37.41,5-73.72,26.41,0,28.6-4.95,28.61l2.2,9.35,24.21-7.15h2.2q-3.3,6.6-35.76,19.25l-2.2,7.15,7.15,21.46h2.2l4.95-4.95L728.31,355q30.81-11.57,50.07-31.36l2.75,2.75v2.2q-16,18.15-42.91,33.56v14.3l4.4,4.4h2.75q19.8,0,28.61-7.15h4.4q9.9,0,26.4,14.3l23.66,12.11,2.2-2.75h2.75l4.4,7.15-4.4,4.95q-23.1,0-33.56-14.3-16.5,0-16.5-9.36L764.07,388a79.64,79.64,0,0,1-38-9.35q0,9.36-12.1,9.35l-2.2-9.35H699.7l12.11,28.61q-5.5,0-7.15-12.1l-2.2,2.2H699.7a27.78,27.78,0,0,1-7.15-18.71H683.2V388H681l-7.15-5-2.2,7.16-14.31-9.36h-2.75q-10.46,3.3-50.06,47.87l-59.42,14.3-7.15,2.2v2.2Q557.2,459,557.22,471.67q9.35,0,9.35,4.4l-2.2,26.41q40.15,20.35,40.16,25.85L626,552.54v11.55q12.1,0,12.11,31.36,33.54,16.5,33.56,71L681,692.83q0,4.95-7.15,4.95a88.54,88.54,0,0,0,23.65,25.86q0,20.36,35.76,78.67l5,9.35v2.75h-5q7.15,7.15,7.16,30.81,6.6,0,35.75,38,10.46,0,30.82,30.81v5h-4.41q-5,0-5-9.9l-30.81-14.31a485.9,485.9,0,0,0-69.32-61.61q0-18.71-33-35.76,0-6.6-38.52-28.61-5.51-4.95-11.55-33l2.2-7.15q-19.26-14.85-59.41-26.41,0-3.84-30.81-16.5-4.95-11-35.76-47.87-8.25-18.15-26.41-33-23.65-44.55-45.11-62.16Z"/><polygon class="cls-1" points="191.07 750.63 190.61 748.48 183.62 749.98 181.39 752.7 187.27 756.51 191.07 750.63"/><path class="cls-1" d="M201.52,733.76l4.84-1q13.88-19.29,35.51-39.11-17.22,3.69-45.58,36.77Z"/></g></svg>