<svg id="Layer_1" data-name="Layer 1" xmlns="http://www.w3.org/2000/svg" viewBox="0 0 901.84 819.17"><defs><style>.cls-1{fill:#820009;}</style></defs><g id="Smile"><path class="cls-1" d="M197.79,576.89l-.9,1.13.78,3.91,1.19.93,3.76-.34.9-1.13c-.12-1.31-.25-2.63-.38-3.94l-1.2-.93Z" transform="translate(-52.75 -49.2)"/><path class="cls-1" d="M889.54,527.44c.3-1.31-.12-1.79.07-3-.51-.45-1-1-1.46-1.43-6.77.83-11.34,6.36-15.55,11.24h2.88C879.54,533.43,888.41,532.32,889.54,527.44Z" transform="translate(-52.75 -49.2)"/><path class="cls-1" d="M919.34,531.68c-.3-2-.61-4-.91-6l-1.16-.86-2,.31c-.62,2.19-1.75,5.29,0,7.2Z" transform="translate(-52.75 -49.2)"/><path class="cls-1" d="M793.53,526.57l1.71-2.31-2.63-3.73-2,.31c.2,1.34.41,2.68.61,4Z" transform="translate(-52.75 -49.2)"/><path class="cls-1" d="M849.26,521.87l1.54-2.09-.3-2-3.8.78-1.54,2.08.3,2Z" transform="translate(-52.75 -49.2)"/><path class="cls-1" d="M817.5,498.44c-1,2.22-2.08,4.43-3.11,6.65l2.31,1.71C818,504.23,819.93,500.9,817.5,498.44Z" transform="translate(-52.75 -49.2)"/><path class="cls-1" d="M896.47,560.27,893,557.7l-2.57,3.48c.1.67.21,1.34.31,2l4-.6Z" transform="translate(-52.75 -49.2)"/><path class="cls-1" d="M900,643.38l-.86,1.16c0,.61,0,1.23.08,1.84l4-.61.85-1.16-.3-2Z" transform="translate(-52.75 -49.2)"/><path class="cls-1" d="M857.73,543.87c.21,1.34.41,2.68.61,4l2.39-3.25-2.31-1.71Z" transform="translate(-52.75 -49.2)"/><path class="cls-1" d="M913.92,578.14l-1.15,4h1.15v2.88h1.44l2.88-2.88V581l-2.88-2.88Z" transform="translate(-52.75 -49.2)"/><path class="cls-1" d="M900.47,614.05l-1.71,2.32.3,2,4-.61,1.71-2.31c-.1-.68-.2-1.35-.31-2Z" transform="translate(-52.75 -49.2)"/><path class="cls-1" d="M902,570.76c-.25,1.37-.51,2.74-.76,4.12-2.75,1.44-7.42,3.68-6.85,7.13l3.77,1.55,5-2.1,1.56-3.76-.81-1.94c.62-.41,1.24-.81,1.87-1.2.32-1.84.65-3.69,1-5.53l-1.43-.35Z" transform="translate(-52.75 -49.2)"/><path class="cls-1" d="M159.21,751.71c-.73-.28-1.45-.58-2.17-.88l-3.15,5c.28.53.55,1.08.85,1.6l2.14.81a52.46,52.46,0,0,1,3-4.71Z" transform="translate(-52.75 -49.2)"/><path class="cls-1" d="M157.39,761.42l3.22,2.73c.22-.92.45-1.85.68-2.77L157.73,760C157.61,760.49,157.5,761,157.39,761.42Z" transform="translate(-52.75 -49.2)"/><path class="cls-1" d="M77.58,750.83c-.31-.81-.63-1.61-1-2.41L61.29,736.2c-.54,1.24-1.08,2.49-1.63,3.73.18.45.36.9.53,1.34Z" transform="translate(-52.75 -49.2)"/><path class="cls-1" d="M954.29,543.5l-6,.92c0,1.65,0,3.3-.07,5L952,549l2.57-3.47C954.5,544.85,954.39,544.17,954.29,543.5Z" transform="translate(-52.75 -49.2)"/><path class="cls-1" d="M910.73,560.51a1.57,1.57,0,0,0-.2-1.22A29.67,29.67,0,0,0,908.6,557c.9-1,1.81-2,2.71-3,0-.39,0-.78,0-1.17l-1.45.08c-.92.94-1.86,1.86-2.76,2.81a.91.91,0,0,1-.16.11c-3.85.94-9.59,2.33-13,3.08s-4.32.71-7.24,1.29a67.18,67.18,0,0,1-20.1-4c0,.67.09,1.35.14,2l-10.89,3.78c-.42,3.41-.89,6.82-1.33,10.22a9.87,9.87,0,0,0-9.06-.35l-.37-.34,2.71-1.29c-.56-1.07-1.12-2.15-1.66-3.24l-3.67-1.16c-.07.35-.44.67-.38,1a22.6,22.6,0,0,0,.8,2.49c-1.73-1.9-3.34-4.23-2.47-6.8s3.19-3.67,4.5-5.89c-2.39-.6-4.79-1.36-7.17-2-.43-1.53-.86-3.06-1.28-4.59l4.81-5a32.8,32.8,0,0,0,18.79-5.41l-.3-4.35-1.09-.68-28.61,11.59c-1.2,2.67-2.39,5.34-3.6,8-2,.17-4,.34-6,.53-.13-1.31-.25-2.63-.36-4l-1.91.12c-.75-1.81-1.52-3.62-2.26-5.44-.54-.06-.84-.43-1.44-.34a10.58,10.58,0,0,0-1.83.76,20.06,20.06,0,0,0-.17,10.54c-1.28,8.16-3.06,16.2-4.78,24.27-1.24-1.16-2.51-2.27-3.8-3.37l-1.87.81c1.36,2.87,2.67,5.75,4,8.62,0,0,0,0,0,0-3.29,10-6.77,20-10.93,29.7-6.72,11.35-11.58,23.13-15.86,35.61-2.39.94-6.5,2.57-8.46,3.4s-1.6,1-3.11,1.71c-1.91,4.61-4.09,9.15-6.24,13.75-3.24,2.66-7.62,6.31-10.72,8.56s-4.93,3-7.74,5a23.07,23.07,0,0,1-.51,3.94,186.11,186.11,0,0,1-7.84,25.84q-4.93,2.29-9.79,4.75c-1.86,5.19-3.7,10.39-5.56,15.58a23,23,0,0,1-10,5.22,75.61,75.61,0,0,1-12.59,11.39l3.71-6.62c-.16-1.66-.3-3.32-.4-5q-3.4.36-6.81.77-4.87,8.31-9.67,16.67c0,.29,0,.58.08.87a358.35,358.35,0,0,1-52.25,29.64A229.54,229.54,0,0,1,611,798.44c0-.26,0-.53,0-.8-1.69-1.71-3.37-3.43-5.07-5.13-3.31,0-6.62-.1-9.94-.16,2.61,3,5.22,6,7.79,9.07-13.28,4.09-26.78,7.15-40.35,10.11a3.87,3.87,0,0,1,1.59.88c-.19,3.33-4.55,5.17-6.74,5.74s-1.76-.15-3.46.17c.12-2.12-.05-3.62-1.68-5.2-7,1.23-18.71,3.09-24.9,3.42-12.62.65-25,1.77-36.1,1.36-31.07-1.17-58.2-11.32-87.73-18.54a28.34,28.34,0,0,0,1.41-4.51c-2.28-.33-4.55-.64-6.84-.86l-2.22,3.41c-2.82-1-5.6-2.18-8.38-3.34-.23-.59-.65-1-.49-1.67,4.56-1.5,11.11-4.6,15-6.24a52.84,52.84,0,0,1,9.43-2.8c3.23-.81,5.18-.4,8.23-.92-.64-.31-.17-1-.88-1.27-3.42-1.35-6.51-.86-10,.15-.17-.43-.3-.88-.45-1.32,7.25-2.78,13.13-6,18.25-11.92l-.48-.3q-28.18,13.23-57,25c-3.32-2.7-6.55-5.5-9.85-8.23a41.53,41.53,0,0,1-18.45-7l.72-1.87c-.31-.47-.62-1-.94-1.41-1,.38-2,.72-3.05,1.07-.47.69-.26,1.39-1.43,1.31-6.24-3.53-16.47-11.34-21-15.06s-5.4-6.47-7.71-8.91-1.2-1.34-2.95-3.16c-1.72.47-3.73.15-5.55.4-.84-1-1.37-1-2.24-2.25s-2.16-3.49-3-5c-3.82-1.26-7.63-2.32-11.48-3.41A27.35,27.35,0,0,1,278.16,727a303.93,303.93,0,0,0-30.4-33.26c-5.71-9.11-11.06-18.48-17.07-27.39-3.64-7.13-6.89-13.63-12-20-14.37-18-11.77-37.65-26.39-52.57-4.73-4.84-19.95,1.55-24.92,5.82-1.08.09-1.19-.3-2-.41.85-.68,1-.94,2-1.73s2.8-2.16,4-3.05c.74-1.38,1.36-2.74,2-4.12a160.5,160.5,0,0,0-16.76,6.24c-.8-.58-1.59-1.16-2.38-1.76,1.73-1.78,3.45-3.6,5.15-5.4,3.77-1.49,7.18-2.77,10.33-5.47,2.36-2,4.38-4.8,6.62-7-1.45,0-2.9.15-4.35.24q-2.35,2.61-4.7,5.24L164.75,579c-2.62-.92-5.25-1.82-7.86-2.76-.17-.61,0-1.38-.35-1.93a1.87,1.87,0,0,0-1.25-1,9.38,9.38,0,0,0-2.11.06l1-1.1c-.22-1.92-.43-3.85-.65-5.78,1.7-1.15,3.38-2.31,5.07-3.47a29.4,29.4,0,0,0,.26-14.2c-.53-.2-.73-.79-1.34-.85a18.65,18.65,0,0,0-9.25,1.79c.15,4.31.31,8.62.43,12.93-.92,1-1.85,2.06-2.77,3.1l-6.46,1.58c0,.33,0,.66,0,1l5.63.61,1.2.95c2.07,6,4.33,11.83,6.39,17.78l-6.7,4.68c.79,3.15,0,5.28-1.78,7.91-4,2.38-7.49,3.48-12.18,2.94a28.08,28.08,0,0,1-11.43,4.88c-1,.14-.84-.61-1.66-.66,2.55-1.67,5-3.24,7.54-5,1.35-1.78,3.62-4.85,4.78-6.31s1.26-1.25,2.23-2.38c2.22,1.67,4.2,2.36,7,1.7.93-.22,1.39-1.27,2.18-1.75-.2-2.09-.36-4.14-.51-6.23-.49-.17-.76-.79-1.32-.81-2.69-.14-4.42.93-6.4,2.64l-.15-2.07-4.29,0c-1.87-6.47-1.21-11.83,1-18.14l4.92-1,.27-2.5c-3-1.22-6.07-2.38-9.1-3.58A48.85,48.85,0,0,0,134.2,548l-3.34-1.22-3.66,4.13c-.68,3.83-1.37,7.67-2.1,11.5-1.35,0-2.71,0-4.06,0,2.62,2.22,5.3,4.37,7.92,6.59-1.37,1.48-2.76,2.94-4.15,4.39A33.23,33.23,0,0,1,121.13,586a53.59,53.59,0,0,1-4.37,20c-2.28,1.68-5.47,4.17-7.37,5.88s-2.28,2.73-3.83,4.36a19.62,19.62,0,0,1-4.13-9.08c-6.45.16-10.48,2.37-15,6.94-10,2.38-19.41,5.34-28.41,10.22-.63.34-.38.72-.87,1.1a13.18,13.18,0,0,1,1.34.71c13-4.18,25.59-7,39.24-7.47-.07,1.51-.15,3-.22,4.55-2.23.59-4.47,1.17-6.68,1.81-1,1.66-2,3.32-3,5,.17.68.34,1.36.5,2a29,29,0,0,1,7.78,11.08c-1,1.08-2.09,2.1-3,3.26a10.26,10.26,0,0,0-.63,1.34,105.07,105.07,0,0,1-12.87-22.3c-.38.43-.42.93-.91,1.29a9.75,9.75,0,0,1-1.81.77,101.78,101.78,0,0,0,8.6,20.4l1.23.58,1.8-.93c.69.89,1.38,1.77,2,2.67l-6.07,7.46-2.08-.32c-1.69-4.68-3.58-9.28-5.36-13.92l-2.18-1.2-1.14,1.06c2.26,6,4.52,12,6.93,17.89-1.77,1.45-3.55,2.89-5.35,4.29-.14.53-.28,1.05-.41,1.58,2.41,2.18,4.83,4.35,7.3,6.46-3.55,3.45-7,7-10.37,10.62,1.66,1,3.29,2,5,3-.36,1.13.06,2.33-.58,3.4-1.19,2-3.07,2.63-5.23,3.22-.74-1.15-1.43-2.32-2.15-3.48l-2.63-.56c-.14.94-.28,1.88-.41,2.82a19.47,19.47,0,0,1,8.6,7,32,32,0,0,0-9.81.63c-.14.7-.27,1.39-.41,2.08l1.27,1.27c3-.68,5.91-1.45,8.81-2.36l1.61.39c.22.68.44,1.35.65,2A32.62,32.62,0,0,1,64.25,709c.12-.47.23-.93.34-1.39l-5.28,2.9L59,711.89l2.16,3.58,2.55.93,5-1.7a46.22,46.22,0,0,1-15.8,15.62c-.25,2.95-.16,6.54,2,8.61s4.67,1.53,7.06,2.89a14,14,0,0,0,2.25,9.1q-.63-6.67-1.25-13.35A83.59,83.59,0,0,1,74,723.25c.2-.94.41-1.87.64-2.81-.37-.48-.73-1-1.09-1.45,3-.8,4.14-2.38,5.08-5.27l2.38.38c-.41,2.1-.87,4.19-1.3,6.28l3.84.89q.36-2.17.78-4.35c-.63-1.13-1.27-2.26-1.91-3.39,2-3.68,4-7.35,6-11-.41-.22-.77-.09-1.15-.45s-.53-1.22-1-1.54a1.17,1.17,0,0,0-1.22-.23c-.51.16-.81.77-1.23,1.08.12-1,.25-2,.37-3.08,1.89-.56,3.78-1.09,5.69-1.61.1.41.21.81.32,1.21a27.89,27.89,0,0,0,2.51,1.38c.27.11.57-.29.8-.11a21.31,21.31,0,0,1,1.86,1.94l-1.71,4.33c1.52,1.78,3,3.55,4.5,5.38.37-.06.5.23.9,0a9.31,9.31,0,0,0,1.27-1c-.24,1.32-.5,2.64-.75,4-2.28-.2-3.77.14-5.37,1.82,4.56,1.32,7.71,3,10.33,7.08l2.3.79a17.85,17.85,0,0,1,8.47-7.06c-.19.81-.37,1.62-.55,2.44l1.7.65c.19-.81.37-1.62.56-2.43q3.69,5.4,7.42,10.79l.69-.1c.27-.83.55-1.66.83-2.49q2.22,4.71,4.52,9.37l1.24.56.45-1.3c-1.25-2.9-2.5-5.8-3.7-8.71l2.34-1,2.64,5.86c2.48.63,5,1.29,7.42,2,.39-1.18.75-2.37,1.09-3.57a32.07,32.07,0,0,1-1.57-3.63c-1.49-.51-1.77-.8-3.56-1.34s-5-1.42-7.09-2c0-1.91.23-3.75.38-5.64.68-1.24,1.65-2.83,2.2-4s.59-1.95,1-3.06a3.83,3.83,0,0,0-3.08,2.6l-1.23-.31a11,11,0,0,0-1.74-8.13c-1.42.29-2.84.64-4.27.87-.22,0-.38-.17-.58-.22-.29-1.55-.59-3.1-.91-4.65,3.65-1.69,6.65-1.67,10.49-.59,1.28,1.93,2.55,3.85,3.8,5.79a7.53,7.53,0,0,0,1.45.27c.46,0,.7-.34,1.11-.47,3.84,13.89,9.17,27,15.11,40.14l1.31.6,1.47-1.5c-5.56-12.58-10.79-25.27-15.6-38.16.13-.4.09-.84.5-1.09,1.7,1.51,4.64,4.16,6.06,5.39s1.37,1,2.51,1.9c.3-.49.83-.57,1.32-.8-1.14-2.66-2.85-4-5.39-5.29l.12-1.18c.64-.25,1.3-.49,2-.72,0-.4.11-.79.15-1.19a9,9,0,0,0-1.24-.47c-.38,0-.53.19-.88.23-.71-1.06-1.45-2.13-2.19-3.18a10.75,10.75,0,0,1,6.55-2.14l2-1.69c-.39-.67-.8-1.32-1.21-2l2.75-.41c0-.35,0-.71,0-1.06-1.92-.42-3.81-.73-5.72-1.26a2.31,2.31,0,0,1-1.24-.65,12.71,12.71,0,0,1-1.14-1.71,4.16,4.16,0,0,0-4-.07h-1.43c-.37-.65-.73-1.31-1.07-2,1.82-1.4,3.59-2.85,5.35-4.33l1,.35c.29,1.47.45,3,.84,4.41a6.7,6.7,0,0,0,1,1.58c5-.3,8.09.88,12,4,.2.16.8.51.95,1a16.29,16.29,0,0,1,.4,1.7c7,4.31,14.08,8.61,21.16,12.82,7.32,8.53,14.21,16.79,22.41,24.94,13.11,9.33,36,21.39,48.18,27.69s12.89,7.94,22.75,13.66c3.07-2.27,7.2-3,11-4,1.12,9.51,2,19.68,4.94,28.66s7.09,16.56,10.39,25.23a15.7,15.7,0,0,0-2.41,1.24c.32.74.65,1.48,1,2.23l3.4-2c.26-.55.52-1.1.79-1.65l5.09,1.43c-2.34,3.44-4.63,6.92-6.92,10.38l1.27,2.52c2.82-3.28,5.6-6.59,8.41-9.87l2.3-1.51a13.1,13.1,0,0,0-.54,1.94c0,.61.44.84.57,1.38.7.12,1.39.26,2.09.39l5.15-4.4c.48.79,1,1.58,1.43,2.38A20.78,20.78,0,0,0,317.3,839q-7.35,9.86-14.29,20l-1.94-.61-1.9,1c.05.55.11,1.09.16,1.64l1.87.58.84,4.51a5.25,5.25,0,0,0,4.44,2.22c4.87-3.67,9-7.45,12.15-12.71L314.35,853q2.22-3.59,4.53-7.13a17.35,17.35,0,0,1,8.78,3.9q2.11-4,4.18-8.12c1.41-.62,2.82-1.21,4.26-1.76A22.36,22.36,0,0,0,348,846.55c.17-2,.35-4,.55-6q7.05,1.71,14.12,3.36c-.46-2.69-1.06-5.34-1.73-8,3.4-.12,6.85-.09,10.23-.22,1.21,1.71,1.18,3,2.68,4.71,4.77,5.6,10.44,11.17,15.81,16.43a4.86,4.86,0,0,0,2.55-1.21,96.73,96.73,0,0,0-6.78-11.27c-1.66-2.45-1.16-2-2.41-3.92,2.88,1,5.7,1.39,8.58,2.06-.2-.46-.38-.92-.58-1.38a12.25,12.25,0,0,1,1.61-1.52c10.06,2.08,21.35,4.56,31.24,7.07a694.05,694.05,0,0,0,109.62,18.11c10.53.89,11.61.93,20.86,1.85,8.88-2.54,18.64-4.31,27.93-6.3a422.09,422.09,0,0,1,41.59-16.43c30-15.66,61.41-28.74,82.54-56.39,9.94-2.27,19.35-4.42,29-8.21a17.72,17.72,0,0,0,3.86-2.4c.56-.51.63-1.94-.31-2.18a28.46,28.46,0,0,1-4.9-1.45c3.55-4.53,5.94-7.61,9.67-12.52s6.36-11.08,11.82-15.8c4.5-3.9,12.28-7.48,17.82-10.58.79-.44.57-1.56-.18-1.56-1.77,0-3.31.57-5,.55,5.73-9.58,11.61-19.09,17.15-28.78a102.91,102.91,0,0,1,19.52-31.78,12.23,12.23,0,0,0,7.75-1.91l1.56-4.11,4.13.39c2.4-2.17,4.79-4.34,7.14-6.56.94,1.09,1.86,2.19,2.78,3.29,0,0,0,0,0,0a2.35,2.35,0,0,1,.89,2.38,5.69,5.69,0,0,0,.69.85,4.37,4.37,0,0,0,.93.36,6.68,6.68,0,0,1,1.33-1.27,9.17,9.17,0,0,0-.78-3.68c-.16-.31-.85-.61-1.08-.73s-.15.06,0,0a5.77,5.77,0,0,1-2.49-2.87c.4-.28.78-.57,1.18-.84a19.26,19.26,0,0,0,9.67,3.1,1,1,0,0,0,1-.62c1.1-2,.67-3.2-.23-5.09.18-.31.38-.62.57-.93l2.52.28.9-1.26q-1.5-2.88-3-5.75c1.69-1.42,3.26-3,4.85-4.5.49.6,1.11,1.27,1.55,1.87a2.29,2.29,0,0,1,.36.85c.27,3.58,4.58,6.47,6.9,7.44s1.76,0,3.56.55a3.85,3.85,0,0,1-.7-1.55c-2.65-3.07-5.34-6.11-8-9.16,0,0,0,0,0,0-.56-.65-1.14-1.29-1.72-1.94q3-1,6-2.12c.1-.26.34-.42.38-.72.07-.68,0-1.38,0-2.06l1.94,0c.64-.68,1.29-1.36,1.92-2l-5.65.1c1.33-8.56,2.2-17.18,3.27-25.79A32.41,32.41,0,0,0,865,616.93a9.49,9.49,0,0,0,1.35.3c-2.32-3.37-4.65-6.74-7-10,.09-.19.2.15.24,0,1.26-2.6,3-2.72,4-5.89,2-6.33,2.73-14.12,2.54-21.06a47.12,47.12,0,0,1,3.42-3.7c1.42-1.31,3.43-2.84,5-4.18,1-2.41,1.91-4.79,2.87-7.19,3-.78,6.07-1.49,9.12-2.35a11.35,11.35,0,0,1,1.5-.33c3.22-.37,6.45-.9,9.67-1.33l9.59,2.58C909.05,563.12,910.15,562.43,910.73,560.51Z" transform="translate(-52.75 -49.2)"/><path class="cls-1" d="M172.9,755.86c-1.88-.31-3.77-.59-5.65-1a55.12,55.12,0,0,0-.7,5.72c-1.69,1.8-3.37,3.61-5.1,5.37l1.13.42,2.93-1.94,4.9,3.34c1-.64,1.94-1.27,3-1.82l.39-1.29C172.68,761.78,171.83,758.9,172.9,755.86Z" transform="translate(-52.75 -49.2)"/><path class="cls-1" d="M857.41,666.55l.27,3.32,3.77-1.58c-.74-.52-1.47-1.06-2.19-1.6Z" transform="translate(-52.75 -49.2)"/></g><path id="Y_Eye" data-name="Y Eye" class="cls-1" d="M415.73,357.72Q431,358.88,431,362.33v1.73l-7.78-1.73-2.88,3.17h-3.17L414,362.33v-1.44l1.73-1.44Zm23-7.49,1.44,1.44v1.44l-1.44,1.73h-1.73l-1.44-1.73v-1.44l1.44-1.44Zm7.49,7.49q15.56,3.18,15.55,7.78-20.16-1.14-20.16-6.05l1.73-1.73Zm20.16-10.66,1.44,1.44v1.73l-1.44,1.44h-3.17v-1.44Zm7.49,24.49h3.17l4.61,4.61h-3.17Zm58.48,1.73,1.44,1.44v1.44q0,2.59-18.44,10.95v10.65l1.73,1.44q0,9.23-10.94,9.22l-10.66-3.17q0,7.78-7.78,12.39l-1.44-1.44,6.05-9.22v-4.61h-2.88v-1.72l4.61-13.54,9.22-3.17V382.5l12.09,2.88Q522.62,373.28,532.4,373.28ZM504.75,156.65v1.44l-3.17,3.17-1.44-1.44v-1.73l1.44-1.44ZM802.61,49.2l4.61,4.61q-6,5.47-18.44,9.22l1.44,1.44v6.34c-2.5,0-4,2-4.61,6h-3.17l6.34,10.65,4.61-2.88h7.49q0-7.77,11-7.77l7.49,1.44v3.16l-9.22,6.05h-1.44l-1.44-1.44h-1.73l-12.1,3.17h-4.61v2.88q0,3.18,9.22,3.17v3.17Q784.17,99,781,106l13.83,1.73q0,3.45-7.78,4.61v6l4.61,1.44,20.17-6v1.44q-1.16,4.6-20.17,10.66l-1.44,6.33,1.44-1.72h3.17v3.16h-3.17v1.45h1.73L798,133.6v1.45l9.22-6.05h2.88l-6.05,9.21v3.17l13.83-4.61h3.17v2.88q-8.37,0-12.39,7.78h1.44l4.61-3.17h1.73V146q-11.24,8.07-15.56,24.49v18.43q-9.23,21.61-13.83,21.61v12.1q0,6.63-12.09,32.26,0,8.07-12.39,32.27Q754.5,306.74,744.13,318v1.44h1.44l13.83-10.66h1.73L764,322.58a75.44,75.44,0,0,1,27.65-17q0-5.18,13.83-12.38h1.73q2.88,0,2.88,4.6h10.95l7.49-4.6q12.09,0,23,15.55,4.6,0,4.61,2.88v3.17l-7.78,1.44q-2.88-2.6-25.92-4.61-4.32-9.21-12.39-9.22L785.61,318l1.44,1.44v3.17c-3.07,0-4.61,2-4.61,6.05L781,330.07h-1.44q-3.16,0-3.17-6.05L775,322.58h-1.73l-6.05,2.88v1.73q4.61,0,7.78,6.05h-1.73L764,328.63v3.17l1.73,1.44v1.44L764,336.41h-2.88q-3.18-3.18-21.61-6.34v1.73a9.25,9.25,0,0,0,6.05,9.21l7.78-3.16c1,5.18,3,8.74,6,10.65l11-1.44h6q6.06,6.06,18.44,10.66,0,5.19,4.61,9.22l-15.27,9.22h-1.73l1.73-7.49h-1.73l-10.65-9.22h-4.61v4.61l3.17,4.61q-4.05,0-7.78,12.1,6.91,3.17,7.78,6.34h-1.73l-9.22-3.17h-2.88l-3.17,3.17,1.44,1.44L742.69,396l-17-8.93v-1.73q0-4.61,12.38-4.61l-3.17-2.88h-3.17l-13.82,10.66,1.73,4.61h-3.17q0-7.79-10.66-7.78l-4.61,6.33,15.27,1.45L715,394.6l1.44,1.44v1.72q0,3.75-13.83,4.61l-9.22-3.17L690.26,407l1.73,4.61h-1.73q-7.49,0-7.49,2.88,4.61,0,4.61,3.17v1.44l-7.78-1.44q-1.15,6.35-13.82,17,0,4-9.22,13.82,0,14.42-4.61,18.44l3.17,4.61L653.68,473l6.05,1.44v3.17L652,480.73v2.88h3.17v3.17H652l-1.44-1.44-4.61,1.44L649.07,502h-1.73q-6-7.49-13.83-7.48L609,519Q570.71,536.32,570.71,545l1.44,4.61q-4,0-18.43,21.6-6.35,0-29.1,30.54l-6,1.73v-1.73a114.21,114.21,0,0,1,19.88-25.93,90.46,90.46,0,0,1,10.66-26.21q-2.31-12.11-12.39-12.1-7.49-13.83-13.54-13.83L520,526.82h-1.44l-1.44-1.73-1.73,1.73h-4.61l-4.6-4.61L524.62,519q3.75,0,13.83,13.83,4,0,13.83,7.49,0-5.76,16.71-36.59,0-4.32,29.38-49.26,7.49-13.53,13.83-44.65,13.24-19.29,19.87-45.8,19.88-14.69,19.88-26.21l1.73-1.44L628.9,310.19l-1.44-1.44H626l-3.17,2.88-1.44-1.44-3.16,3.17H616.8v-3.17h-1.72q0,6-4.61,6.05l3.17,12.39q-6.06-2-6-13.83l2.88-3.17-6.05-1.44q-2.31,6-4.61,6.05h-1.44V314.8l1.44-1.44q-1.15-7.78-7.78-7.78v-1.44l1.73-7.78L592,294.92h-1.44L578.2,311.63l1.73,1.73v1.44a36,36,0,0,0-9.22,19.88H569l-1.45-1.44v-7.78a285.87,285.87,0,0,1,23.05-38.31V284h-1.44l-4.61,1.73V284q0-2.88,4.61-2.88,0-7.78-34-12.39l-7.49,1.44-1.73-1.44v-1.44l1.73-1.73h7.49l29.38,4.61,1.44-1.44v-1.44q-6,0-26.21-23h1.73l27.65,19.88h1.44q-13-32.27-27.65-32.26,0-8.93-7.78-13.83-5.48,0-10.66-16.71l-4.61-4.61,1.44-1.73h1.73l1.44,1.73,3.17-6.34q-3.75-10.65-9.22-10.65l-3.17-9.22q0-3.16,4.61-3.17v-2.88q0-9.23-12.1-27.66v-1.72h1.44a94.34,94.34,0,0,0,24.49,20.16l4.61,6-3.17,4.61q4.61,0,4.61,6h6.33q6.35-2.59,10.66-10.66l-4.61-18.44h4.61q3.16,0,6,9.22l-4.61,3.17Q580.21,169,586,169l3.17,6.05-1.73,7.77q6.92,8.65,44.65,16.71,8.92,25.35,46.09,57l18.44-40V202.74q7.49-19.29,9.22-32.26l6-3.17v-1.44l-4.61-6.05V152q9.21-13.83,9.22-18.44-5.47,0-13.83-18.43v-1.44l6.05-9.22-1.44-6.05q3.16-9.21,6-9.22H715l6.05,6.05v1.44l-1.44,1.73V99.9h7.48q0-5.19,17-18.44l9.22,3.17h3.17l-1.73-1.73V80H758q3.16,0,6,9.22h3.17l4.61-7.78-4.61-4.6,4.61-10.66-1.44-4.61h1.44L782.44,57c0,1.54,2.12,3.07,6.34,4.61ZM532.4,265.54v3.17l-13.83,3.17h-1.44v-4.61Zm-6,288.65,2.88,3.16-2.88,2.89-3.17-2.89Zm7.49-333q9.21,3.45,9.22,6V229h-1.73q-6.92-3.18-7.49-6.34Zm24.49,136.54v1.73q-6.06,6.63-17,9.22v-1.73Q549.12,357.73,558.33,357.72Zm-6.05,24.78,1.44,1.44v1.44l-4.61,3.17-3.17-3.17Zm15.26-40H569l3.16,13.82L569,359.45l-4.61-6.34v-7.49Zm46.1-202.81h4.61v3.17h-4.61Zm0,195L626,345.62l-1.73,1.44h-2.88Q617.38,347.06,613.64,334.68Zm21.6,12.38,4.61,1.44v3.17h-3.17l-3.17-3.17Zm15.27,164.2h3.17v4.61h-3.17Zm49-428.36,1.73,1.73v1.44L698,89.24l-1.44-1.73V86.07Zm9.22,344,1.73,1.44v3.17l-6.34,6-2.88-2.88v-3.17Q701.21,428,708.7,426.86ZM733.47,69.08l2.88,3.17-1.44,1.44h-6l-3.16-2.88,1.43-1.73Zm-6.34,371.61h3.17v6.05h-3.17ZM741,397.76v1.44q-5.76,27.66-9.22,27.66l-1.44-1.44Q736.06,400.64,741,397.76ZM738.08,70.81h1.44l3.17,2.88h-4.61Zm6,2.88h3.17c4,1.54,6.05,3.07,6.05,4.61h-3.17Zm18.44-21.32,6,6.05v1.44l-6-6Zm9.22,242.55v2.88L768.62,301h-1.44Zm-3.17,156.43h1.73l2.88,3.16h-4.61Zm24.77-125.89h6.05v4.61q-1.44,4.6-9.22,4.61l-1.44-1.44v-3.17Zm2.88,50.7h3.17q2.88,0,6,9.22l-1.44,1.73h-6l-4.61-4.61v-3.17Zm18.44-39.75q9.21,0,9.22,12.09l-1.44,1.73q-18.45-2-18.44-7.77Q806.65,336.4,814.71,336.41ZM808.66,96.73h1.44q10.95,3.75,10.95,6.34h-1.73L808.66,99.9Zm6.05,119.84,1.73,1.44v3.17l-6.34,4.61-1.44-1.44v-1.73Zm6.34-113.5h2.88q16.41,0,21.6,13.83,7.49,3.45,13.83,13.54v1.72l-4.61,4.61H853l-19.88-24.48Q823.35,112.29,821.05,103.07Zm38.31-29.38q0,3.16,16.71,3.17V78.3l1.72-1.44h15.27L896.23,80l-3.17,4.61,1.44,1.44q-11.24,9.23-16.71,9.22Q858.2,80,850.14,80l-27.65,1.44V78.3Zm-27.66,284h1.44l3.17,3.17-1.73,1.44H831.7Zm9.22-164.2h2.88V195q-2.88,7.22-6,7.78l-1.44-1.44h-1.73Q837.76,194.1,840.92,193.52ZM854.75,90.68l1.44,1.44v1.73l-15.27,4.61-1.73-1.73V95.29ZM865.41,146h1.44q26.21,10.95,26.21,13.83v1.44l-3.17,3.17H882.4q-8.05,0-15.55-9.22l1.73-1.73V152l-3.17-3.17Zm3.17,172,7.49,1.44v3.17l-7.49-1.73Zm7.49,7.49q27.07,0,35.43,13.83l-4.61,4.61h-1.44q-23.06-5.19-23.05-13.83l-6.33-1.44Z" transform="translate(-52.75 -49.2)"/><g id="X_Eye" data-name="X Eye"><path class="cls-1" d="M169.83,366.88c.62,4,5.41,3.92,8.63,4v1.44c-.46.47-1,1-1.41,1.42,3.29-.58,8.1-2.41,10.95-2.72s.2-.3,3.66,0,12,2.16,16.3,2.69c-1.43-5.67-26.79-10.38-30.42-11s-2.25.19-4.93-.18a40,40,0,0,1-2.79,2.91C169.86,365.94,169.75,366.35,169.83,366.88Z" transform="translate(-52.75 -49.2)"/><path class="cls-1" d="M118.73,521.92q9.8-3.17,9.8-6.34Q121.9,515.58,118.73,521.92Z" transform="translate(-52.75 -49.2)"/><path class="cls-1" d="M107.5,196.69h-2.59l-2.6,2.31,8.93,7.49q3.75,0,3.75,3.74h7.49Q111,197.27,107.5,196.69Z" transform="translate(-52.75 -49.2)"/><rect class="cls-1" x="107.15" y="262.6" width="5.3" height="5.3" transform="translate(-208.15 106.12) rotate(-45)"/><polygon class="cls-1" points="508.17 278.27 505.86 280.87 508.17 283.17 509.61 283.17 511.91 280.87 509.61 278.27 508.17 278.27"/><path class="cls-1" d="M527.21,525.67v2.59q4.34,0,12.68,8.64l2.3-2.59v-3.75Q542.19,526.54,527.21,525.67Z" transform="translate(-52.75 -49.2)"/><polygon class="cls-1" points="487.13 243.42 485.7 244.57 488.29 247.16 490.88 247.16 490.88 245.72 488.29 243.42 487.13 243.42"/><polygon class="cls-1" points="99.68 126.17 100.83 125.02 97.09 121.28 94.5 123.58 99.68 127.33 99.68 126.17"/><polygon class="cls-1" points="224.13 136.26 224.13 134.82 222.69 133.66 220.38 136.26 220.38 137.41 222.69 137.41 224.13 136.26"/><polygon class="cls-1" points="483.39 95.06 480.8 92.47 478.21 95.06 478.21 96.22 479.65 97.66 483.39 95.06"/><polygon class="cls-1" points="139.44 98.81 142.03 96.22 138.28 92.47 135.69 92.47 135.69 96.22 138.28 98.81 139.44 98.81"/><polygon class="cls-1" points="54.74 479.06 57.05 479.06 59.64 476.47 57.05 476.47 54.74 479.06"/><path class="cls-1" d="M159.93,163l1.15-1.15q-4.32-7.5-11.24-7.49l-2.59,2.3Q147.25,160.12,159.93,163Z" transform="translate(-52.75 -49.2)"/><path class="cls-1" d="M557.17,309.9q-4-7.48-9.79-7.49h-1.44q0,2.59,3.74,2.6l-1.15,4.89a64.1,64.1,0,0,0,17.57,11.24h1.16l3.74-3.75v-1.15Q571,311.92,557.17,309.9Z" transform="translate(-52.75 -49.2)"/><path class="cls-1" d="M153.59,199l-1.15,1.44v2.3l3.74-3.74q0-2.31-21.32-21h-1.15L130,182.86l23.62,15Z" transform="translate(-52.75 -49.2)"/><polygon class="cls-1" points="524.59 129.92 524.59 131.07 525.74 132.51 528.33 129.92 528.33 128.77 525.74 128.77 524.59 129.92"/><polygon class="cls-1" points="208 320.62 202.81 316.88 194.17 319.47 199.07 324.37 204.25 324.37 208 320.62"/><polygon class="cls-1" points="235.36 316.88 232.77 314.28 231.62 314.28 231.62 316.88 232.77 318.03 233.92 318.03 235.36 316.88"/><polygon class="cls-1" points="131.95 156.13 128.2 152.39 125.61 154.98 128.2 157.29 130.79 157.29 131.95 156.13"/><path class="cls-1" d="M618.25,144.26l-21,8.65v2.59q23.61-6.33,23.62-8.64Z" transform="translate(-52.75 -49.2)"/><polygon class="cls-1" points="181.78 95.06 180.34 96.22 182.94 98.81 184.09 98.81 185.53 97.66 182.94 95.06 181.78 95.06"/><polygon class="cls-1" points="123.3 154.98 121.86 146.05 119.56 146.05 116.97 153.54 119.56 156.13 121.86 156.13 123.3 154.98"/><path class="cls-1" d="M575.9,160.4q-12.1,13.53-15,13.82h-2.31l-3.74-2.59h-1.44l-2.3,2.59-13.83-2.59V169l1.15-1.15c3.46,0,5.18-.87,5.18-2.6v-1.15H541l-1.15,1.15-1.44-1.15-3.74,4.9q-2.6-2.59-18.44-3.75L495,178q-37.45,18.72-37.45,26.21l-15,21q-15,8.07-15,15,0,4.32,3.75,8.64v8.93h-15q-15,10.38-15,15-10.66,0-17.29,17.29-6.33,19.59-16.13,22.47h-1.44q-4.91-2.88-9.79-12.39-19-5.48-25.06-15h-3.75l-4.9,3.74-18.72-12.38v-1.44q6.63,0,8.64-4.9v-2.59l-1.15-1.16q-12.39-4.32-12.39-8.64,0-19.57-28.8-28.8V217.72q-4.33-6.61-21-13.54-2.9-12.68-6.34-12.67,0-11.52-13.83-16.13v-2.6l15-8.64-2.3-2.3-13.83,8.64q-9.8-8.92-12.39-16.13l2.31-6.34q4.6,0,10.08-10.08l3.74,1.44q4.91-2,4.9-3.75l-2.3-2.59h-2.6q-10.08,0-10.08,10.08-9.8,6.34-9.79,17.29l1.15,4.89-3.75,2.6,1.16,8.64h-4.9v-1.15l1.15-1.16Q194.79,165.87,191,160.4h-5.19l-2.3,2.59,2.3,6a12.2,12.2,0,0,1,8.93,3.74q-.85,6.34-3.74,6.34H184.7l-6.34-11.23,1.44-6-2.59-2.6h-1.15l-1.44,7.49-7.49-2.59H166l-1.16,1.15q0,3.18,9.8,13.83l-2.31,3.74v2.6l1.16,1.15q3.74,0,3.74,3.74h8.64l3.75,11.24,5.18-1.15q6.06,0,7.2,3.74v2.31l-2.3,3.74v5.19l3.46,3.74q-.87,3.75-9.8,8.64V229l1.44,1.15-8.93,5.18H184.7l-2.59-2.59v-2.59h2.59q1.73-7.2,6.34-7.2v-2.6h-3.75l-2.59,2.6-26.21-17.58h-2.31l18.44,16.14v2.59l-21-6.34-1.15,1.44q0,2.31,17.28,7.49v1.15L168.57,229v2.59h2.3v1.15l-1.15,1.15q-5.76,0-37.45-22.18-6,.87-6.05,3.75v1.15q43.5,19.88,47.25,23.62-9.22,11.24-15,11.24v1.15l2.59,2.59h2.59l3.46-2.59h1.44q0,8.92,15,10.08l-1.44,1.15q0,7.5,12.67,13.83l2.31-2.59v-1.16q-7.49-4-7.49-6.33H191l1.15-1.16h1.15q0,3.75,2.6,3.75l3.74-2.59q2,12.68,4.9,12.67c-1.15,3.85-2.79,5.86-4.9,6q.87,12.39,4.9,12.39h2.3l2.59-2.31v-3.74L206.88,290c0-4,1.25-6,3.75-6v-3.75l-4.9-7.49V271.3h1.15q6.06,0,20.17,11.24,13.53,27.07,27.36,28.8,3.16,9.8,4.9,9.8,0,6.63,15,17.57,28.8,19.88,28.81,24.77-2.6.58-5.19,6.34L279.19,386q-13.54,11.24-13.54,23.91a143.79,143.79,0,0,0-42.35,27.37q-6,12.39-10.08,12.39-13.18,16.08-23,17.43a3.1,3.1,0,0,0,.13-.58,10.2,10.2,0,0,0,0-1.46c-6.22-1.23-20.85-3.61-22.29-11.07s-6.06-11.18-11.41-15.72c-.43,0-.95,0-1.42,0l-1.44,1.43c.29,2.3,2.34,2.51,4.32,2.6v2.88L152.36,448c-.16,3.26-.58,6.45-4.32,6.91,0,1,0,1.91,0,2.89.89-.13.44.18,1.64-.06s4-1,5.56-1.38c11.25,1,21.28,7.25,30.86,12.67l.79-.05q-11.13,12.76-16,15.45-29.38,16.71-39.75,28.81v1.15h1.15l28.81-19.87q20.46-10.08,21-12.68,15.84,0,30-18.44,8.64,0,8.64-6.33,11.23-2.31,11.23-6.34h3.75q7.49,0,10.08-7.49l-1.44-4.9q18.72-10.08,18.73-23.62,17.56-7.2,17.57-13.83,19.88,0,38.6-26.21,11.24,9.22,23.62,32.55a48.39,48.39,0,0,1,13.83,17.28q16.13,19.31,18.72,25.07,16.14,6.63,16.13,8.64,21,6,31.12,13.83l-1.16,3.74q3.17,14.7,6.05,17.29,20.16,11.52,20.17,15Q465,517,465,526.82a255.33,255.33,0,0,1,36.3,32.26l16.13,7.49c0,3.46.87,5.19,2.59,5.19h2.31v-2.59Q511.66,553,506.19,553q-15.29-19.87-18.73-19.87,0-12.39-3.74-16.13h2.59v-1.45l-2.59-4.89Q465,480.15,465,469.49A46.41,46.41,0,0,1,452.6,456q3.75,0,3.75-2.59l-4.9-13.83q0-28.51-17.57-37.16,0-16.41-6.34-16.42V379.9l-11.23-12.67q0-2.88-21-13.54l1.15-13.83q0-2.3-4.9-2.3,0-6.63-10.08-12.68v-1.15l3.75-1.15,31.11-7.49q20.74-23.34,26.21-25.06H444l7.49,4.89,1.15-3.74,3.75,2.59h1.15v-4.9h4.9a14.59,14.59,0,0,0,3.74,9.8h1.44l1.16-1.15q.86,6.33,3.74,6.33l-6.34-15h6.34l1.15,4.9q6.35,0,6.34-4.9a41.68,41.68,0,0,0,19.88,4.9l10.08-1.15q0,4.9,8.64,4.9Q524,305,536.15,305l2.3-2.6-2.3-3.74h-1.44l-1.16,1.44-12.38-6.34q-8.65-7.49-13.83-7.49H505q-4.61,3.75-15,3.75h-1.44l-2.3-2.31v-7.49q14.12-8.06,22.47-17.57v-1.15l-1.44-1.44q-10.09,10.37-26.22,16.42l1.44,4.89L480,284h-1.15l-3.75-11.24,1.16-3.74q17-6.63,18.72-10.08H493.8l-12.68,3.74-1.15-4.9q2.59,0,2.59-15,19-11.24,38.61-13.82l8.64-18.73,37.45-38.6q16.13-6.33,16.13-9.79c4.22,0,6.34-.87,6.34-2.6v-1.15l-1.16-1.44Q585.41,160.4,575.9,160.4Z" transform="translate(-52.75 -49.2)"/><polygon class="cls-1" points="474.46 186.09 474.46 187.25 478.21 187.25 479.65 186.09 477.05 183.5 474.46 186.09"/><path class="cls-1" d="M520,242.78h-2.59A135.67,135.67,0,0,1,495,258.92q9.23,0,27.37-13.83Z" transform="translate(-52.75 -49.2)"/><path class="cls-1" d="M153.59,252.58,151,250.27q-22.47,8.64-22.47,11.24l2.59,3.74Q145.81,252.58,153.59,252.58Z" transform="translate(-52.75 -49.2)"/><path class="cls-1" d="M518.57,524.51q0-10.08-19.87-10.08V517q10.37,0,13.82,9.79l8.65-1.15v-2.6H520Z" transform="translate(-52.75 -49.2)"/><rect class="cls-1" x="439.6" y="466.38" width="3.75" height="2.59"/><path class="cls-1" d="M186.74,407.69c-6.18.26-11.36,2.58-16.73,5.45,0,.48,0,1,0,1.44l1.45,1.44,22.46-5.76c0-.87,0-1.72,0-2.6C191.57,407.72,189.06,407.59,186.74,407.69Z" transform="translate(-52.75 -49.2)"/><path class="cls-1" d="M145.45,457.83H144l-2.88,2.88h4.32Z" transform="translate(-52.75 -49.2)"/><path class="cls-1" d="M185.1,348.22v-2.88h4.32v2.88Z" transform="translate(-52.75 -49.2)"/><path class="cls-1" d="M162.63,307.31l2.88-2.88h1.15l17,10.08h1.44l1.44-1.44c3.46.34,5.25,2.62,6.92,5.48h-2.6C182.35,316.18,168.88,314.35,162.63,307.31Z" transform="translate(-52.75 -49.2)"/><path class="cls-1" d="M197.78,341.3v2.6l-4.32,1.44h-2.6c.46-2.36,3.55-3.27,5.48-4Z" transform="translate(-52.75 -49.2)"/><path class="cls-1" d="M123.49,294.64l-1.44,1.44c-2.93-.57-3.65-4.51-4.32-6.92l1.44-1.44c9.94.68,16.37,4.93,22.47,12.68h-4.32C133.2,296.91,128.8,295.36,123.49,294.64Z" transform="translate(-52.75 -49.2)"/><path class="cls-1" d="M234.32,342.47c-.24,2.66-3.25,2.8-5.43,2.86,0,.49,0,1,0,1.45l1.44,1.44h-2.88l-7.2-4.32-6.92,4.32h-2.88l-17-12.68v-2.88c4-.71,6.54-5.29,8.64-8.35-2.87-1-7.89-2.26-8.64-5.76,3.12.35,9.21.39,10.08,4.32l4-1.44c-1.41-2.89-3.37-8.8-6.91-9.8v-1.44l1.44-1.44c3.59,3.91,8.88,8.59,9.79,14.12,3.81.69,13.93,1.17,15.56,5.76l-2.88,2.59c2.51,3.67,5.32,5.47,9.8,5.76C234.27,338.84,234.5,340.58,234.32,342.47Z" transform="translate(-52.75 -49.2)"/></g></svg>